<?xml version="1.0" encoding="UTF-8"?>
<svg width="20px" height="19px" viewBox="0 0 20 19" version="1.1" xmlns="http://www.w3.org/2000/svg" xmlns:xlink="http://www.w3.org/1999/xlink">
    <!-- Generator: Sketch 58 (84663) - https://sketch.com -->
    <title>edit</title>
    <desc>Created with Sketch.</desc>
    <g id="Page-1" stroke="none" stroke-width="1" fill="none" fill-rule="evenodd">
        <g id="user-profile" transform="translate(-371.000000, -61.000000)">
            <g id="header" transform="translate(-0.240000, 0.000000)">
                <g id="edit" transform="translate(369.000000, 58.000000)">
                    <rect id="Rectangle" x="0" y="0" width="25" height="25"></rect>
                    <path d="M21.3225806,20.3225806 C21.6935484,20.3225806 22,20.6290323 22,20.983871 C22,21.3387097 21.7096774,21.6451613 21.3387097,21.6451613 L21.3387097,21.6451613 L3.67741935,21.6451613 C3.32258065,21.6451613 3.01612903,21.3387097 3.01612903,20.983871 C3.01612903,20.6290323 3.30645161,20.3225806 3.67741935,20.3225806 L3.67741935,20.3225806 Z M14.016129,3.19354839 C14.2903226,2.93548387 14.7096774,2.93548387 14.9677419,3.19354839 L14.9677419,3.19354839 L18.0645161,6.32258065 C18.3225806,6.59677419 18.3225806,7.01612903 18.0645161,7.27419355 L18.0645161,7.27419355 L7.25806452,18.0806452 C7.12903226,18.2096774 6.96774194,18.2741935 6.79032258,18.2741935 L6.79032258,18.2741935 L3.66129032,18.2903226 C3.48387097,18.2903226 3.32258065,18.2258065 3.19354839,18.0967742 C3.06451613,17.9677419 3,17.7903226 3,17.6129032 L3,17.6129032 L3.01612903,14.4677419 C3.01612903,14.2903226 3.09677419,14.1290323 3.20967742,14 L3.20967742,14 L11.8548387,5.37096774 Z M12.3225806,6.79032258 L4.35483871,14.7580645 L4.33870968,16.9354839 L6.53225806,16.9193548 L14.5,8.96774194 L12.3225806,6.79032258 Z M14.5,4.61290323 L13.2741935,5.83870968 L15.4516129,8.01612903 L16.6774194,6.79032258 L14.5,4.61290323 Z" id="Combined-Shape" fill="#FFFFFF" fill-rule="nonzero"></path>
                </g>
            </g>
        </g>
    </g>
</svg>