<?xml version="1.0" encoding="UTF-8"?>
<svg width="7px" height="14px" viewBox="0 0 7 14" version="1.1" xmlns="http://www.w3.org/2000/svg" xmlns:xlink="http://www.w3.org/1999/xlink">
    <!-- Generator: Sketch 58 (84663) - https://sketch.com -->
    <title>Group 2</title>
    <desc>Created with Sketch.</desc>
    <g id="Page-1" stroke="none" stroke-width="1" fill="none" fill-rule="evenodd" opacity="0.8">
        <g id="user-profile" transform="translate(-387.000000, -685.000000)" fill="#FFFFFF" fill-rule="nonzero">
            <g id="change-password" transform="translate(0.000000, 657.000000)">
                <g id="Group-2" transform="translate(386.000000, 28.000000)">
                    <g id="icons8-back" transform="translate(4.000000, 7.000000) scale(-1, 1) translate(-4.000000, -7.000000) ">
                        <path d="M6.40527358,0.577636733 C6.25372439,0.582152396 6.10988619,0.645490245 6.00423192,0.7542318 L0.170898467,6.58756525 C-0.0568162363,6.8153743 -0.0568162363,7.1846257 0.170898467,7.41243475 L6.00423192,13.2457681 C6.15054158,13.3981585 6.36780433,13.4595455 6.57222886,13.4062541 C6.7766534,13.3529626 6.93629591,13.1933201 6.98958739,12.9888955 C7.04287887,12.784471 6.98149188,12.5672083 6.82910142,12.4208986 L1.40820283,7 L6.82910142,1.57910153 C7.00162831,1.41139824 7.05350319,1.15497976 6.95972993,0.933402466 C6.86595666,0.711825174 6.64577227,0.570544329 6.40527358,0.577636733 Z" id="Path"></path>
                    </g>
                </g>
            </g>
        </g>
    </g>
</svg>